# xmcd
#
# Track frame offsets:
#	150
#	13847
#	26734
#	39611
#	50994
#	63674
#	73608
#	87014
#	95219
#	107258
#	119310
#	130225
#	144384
#	155712
#	166587
#	181483
#	194901
#	205246
#	218014
#	230272
#
# Disc length: 3431 seconds
#
# Revision: 3
# Processed by: cddbd v1.5.2PL0 Copyright (c) Steve Scherf et al.
# Submitted via: audiograbber 1.83.01
#
DISCID=270d6514
DTITLE=Various Artist - Country Love Songs Missing You
DYEAR=2001
DGENRE=Country
TTITLE0=Slim Whitman - You Are My Sunshine
TTITLE1=Billie Jo Spears - What I´ve Got in Mind
TTITLE2=Tammy Wynette - Stand By Your Man
TTITLE3=Glen Campbell - It´s Only Make Believe
TTITLE4=The Bellamy Brothers - Let Your Love Flow
TTITLE5=Ray Price - Make The World Go Away
TTITLE6=Lynn Anderson - Top Of The World
TTITLE7=Roger Miller - In The Summertime
TTITLE8=Conway Twitty - She Needs Someone To Hold Her (When She Cries)
TTITLE9=Johnny Cash - You´re The Nearest Thing To Heyven
TTITLE10=Faron Young - I Miss You Already
TTITLE11=Jerry Lee Lewis - Cold, Cold Heart
TTITLE12=Patsy Cline - Cry Not For Me
TTITLE13=Charlie Rich - There Won´t Be Anymore
TTITLE14=Don Gibson - Woman
TTITLE15=Patti Page - Tennessee Waltz
TTITLE16=Jim Reeves - Just Call Me Lonesome
TTITLE17=Hank Williams - There´Il Be No Teardrops Tonight
TTITLE18=Eddy Arnold - I´Il Hold You in My Heart (´Til I Can Hold You In My Arm
TTITLE18=s)
TTITLE19=Jimmy Dean - Sleeping Beauty
EXTD=
EXTT0=Slim Whitman
EXTT1=Billie Jo Spears
EXTT2=Tammy Wynette
EXTT3=Glen Campbell
EXTT4=The Mellamy Brothers
EXTT5=Ray Price
EXTT6=Lynn Anderson
EXTT7=Roger Miller
EXTT8=Conway Twitty
EXTT9=Jonny Cash
EXTT10=Faron Young
EXTT11=Jerry Lee Lewis
EXTT12=Patsy Cline
EXTT13=Charlie Rich
EXTT14=Don Gibson
EXTT15=Patti Page
EXTT16=Jim Reeves
EXTT17=Hank Williams
EXTT18=Eddy Arnold
EXTT19=Jimmi Dean
PLAYORDER=
